<svg xmlns="http://www.w3.org/2000/svg" xmlns:xlink="http://www.w3.org/1999/xlink" width="588.51" height="141.498" viewBox="0 0 588.51 141.498"><defs><clipPath id="a"><rect width="588.51" height="141.498" fill="none"/></clipPath></defs><g clip-path="url(#a)"><path d="M58.565,74.332a77.382,77.382,0,0,1-7.829-55.7L54.619,2.256,0,32.546v76.047l59.334,32.9,5.484-29.223a56.584,56.584,0,0,0-6.253-37.943" fill="#1a1311"/><path d="M128.635,32.546,69.948,0,64.382,23.475a56.333,56.333,0,0,0,5.7,40.549,77.723,77.723,0,0,1,8.588,52.119l-4.222,22.5,54.187-30.051Z" fill="#1a1311"/><path d="M157.149,61.124V10.781h18.7c7.168,0,10.92,1.568,10.92,9.015v7.729a7.777,7.777,0,0,1-7.729,7.559c4.761.225,8.289,3.361,8.289,7.393v8.512c0,6.887-1.96,10.192-10.752,10.192Zm19.768-37.183c0-2.968-.953-4.536-4.2-4.536h-5.488V31.5h5.319c3.025,0,4.369-1.344,4.369-4.592Zm-9.688,15.736V52.445h5.1c3.3,0,5.152,0,5.152-3.248v-5.88c0-2.968-2.352-3.64-4.816-3.64Z" fill="#1a1311"/><path d="M191.756,61.125V10.781h26.88v8.792h-16.8v11.7h16.24v8.4h-16.24V52.333H219.2v8.792Z" fill="#1a1311"/><rect width="10.473" height="50.344" transform="translate(222.947 10.781)" fill="#1a1311"/><path d="M254.755,42.421V34.413h14.56V50.766c0,8.287-6.72,11.479-15.12,11.479s-15.344-3.192-15.344-11.479V21.142c0-8.288,6.664-11.481,15.12-11.481,8.4,0,15.12,3.193,15.12,11.481v5.544h-10.08V22.541c0-2.687-2.128-4.2-5.04-4.2-2.968,0-5.04,1.512-5.04,4.2V49.365c0,2.688,2.3,4.2,5.264,4.2,2.912,0,5.264-1.513,5.264-4.2V42.421Z" fill="#1a1311"/><path d="M274.019,61.125V10.781H300.9v8.792H284.1v11.7h16.24v8.4H284.1V52.333h17.36v8.792Z" fill="#1a1311"/><path d="M177.029,113.188h10.248v7.168c0,8.288-6.552,11.48-14.951,11.48s-15.345-3.192-15.345-11.48V90.732c0-8.287,6.664-11.48,15.12-11.48,8.4,0,15.176,3.193,15.176,11.48v5.544H177.2V92.132c0-2.687-2.185-4.2-5.1-4.2-2.968,0-5.04,1.513-5.04,4.2v26.825c0,2.687,2.072,4.2,5.04,4.2,2.912,0,4.928-1.513,4.928-4.2Z" fill="#1a1311"/><path d="M200.829,121.476l-1.512,9.24H189.293l8.343-50.344H214.38l8.456,50.344H212.645l-1.513-9.24ZM205.981,88.1,202,112.909h7.953Z" fill="#1a1311"/><path d="M226.028,130.717V80.373h26.88v9.016h-16.8v11.536h16.24v8.4h-16.24v21.392Z" fill="#1a1311"/><path d="M256.379,130.717V80.373h26.88v8.792h-16.8v11.7H282.7v8.4h-16.24v12.656h17.36v8.792Z" fill="#1a1311"/><path d="M313.5,94.261c0,2.408,1.735,3.36,7.9,5.769,11.648,4.591,12.543,7.168,12.543,15.119v5.208c0,8.288-6.943,11.48-15.4,11.48-8.512,0-15.176-3.192-15.176-11.48v-6.832h9.968v5.6c0,2.688,2.351,4.2,5.32,4.2s5.32-1.512,5.32-4.2v-2.072c0-5.376-1.009-6.328-8.233-9.016-10.247-3.808-12.207-6.888-12.207-13.1v-4.2c0-8.287,6.664-11.48,15.12-11.48s15.119,3.193,15.119,11.48v4.984H323.8V91.909c0-2.688-2.184-4.2-5.151-4.2-3.081,0-5.152,1.288-5.152,3.976Z" fill="#1a1311"/><path d="M338.418,90.732c0-8.287,6.72-11.479,15.12-11.479s15.176,3.192,15.176,11.479v29.624c0,8.289-6.776,11.481-15.176,11.481s-15.12-3.192-15.12-11.481Zm9.968,28.225c0,2.688,2.24,4.2,5.152,4.2,2.968,0,5.208-1.512,5.208-4.2V92.133c0-2.688-2.24-4.2-5.208-4.2-2.912,0-5.152,1.512-5.152,4.2Z" fill="#1a1311"/><path d="M384.618,121.7h16.408v9.016h-26.88V80.373h10.472Z" fill="#1a1311"/><path d="M424.265,80.373H434.4v39.983c0,8.288-6.776,11.481-15.176,11.481s-15.176-3.193-15.176-11.481V80.373h10.136v38.584c0,2.687,2.128,4.2,5.04,4.2s5.04-1.513,5.04-4.2Z" fill="#1a1311"/><path d="M437.7,80.373h30.184v8.792h-9.856v41.552H447.5V89.165h-9.8Z" fill="#1a1311"/><rect width="10.472" height="50.344" transform="translate(471.304 80.373)" fill="#1a1311"/><path d="M487.207,90.732c0-8.287,6.72-11.479,15.12-11.479S517.5,82.445,517.5,90.732v29.624c0,8.289-6.776,11.481-15.176,11.481s-15.12-3.192-15.12-11.481Zm9.968,28.225c0,2.688,2.24,4.2,5.152,4.2,2.968,0,5.208-1.512,5.208-4.2V92.133c0-2.688-2.24-4.2-5.208-4.2-2.912,0-5.152,1.512-5.152,4.2Z" fill="#1a1311"/><path d="M553.343,80.373v50.344h-9.856l-10.92-29.12v29.12h-9.632V80.373h9.855l10.92,29.344V80.373Z" fill="#1a1311"/><path d="M568.071,94.261c0,2.408,1.736,3.36,7.9,5.769,11.648,4.591,12.543,7.168,12.543,15.119v5.208c0,8.288-6.943,11.48-15.4,11.48-8.512,0-15.176-3.192-15.176-11.48v-6.832H567.9v5.6c0,2.688,2.352,4.2,5.32,4.2s5.32-1.512,5.32-4.2v-2.072c0-5.376-1.008-6.328-8.232-9.016-10.248-3.808-12.208-6.888-12.208-13.1v-4.2c0-8.287,6.664-11.48,15.12-11.48s15.119,3.193,15.119,11.48v4.984h-9.967V91.909c0-2.688-2.184-4.2-5.152-4.2-3.08,0-5.152,1.288-5.152,3.976Z" fill="#1a1311"/></g></svg>