<svg xmlns="http://www.w3.org/2000/svg" xmlns:xlink="http://www.w3.org/1999/xlink" width="621.147" height="187.087" viewBox="0 0 621.147 187.087"><defs><clipPath id="a"><rect width="621.147" height="187.087" fill="none"/></clipPath></defs><g clip-path="url(#a)"><path d="M77.434,98.281A102.311,102.311,0,0,1,67.083,24.637L72.217,2.983,0,43.033V143.58l78.451,43.507,7.25-38.639a74.815,74.815,0,0,0-8.267-50.167" fill="#1f0300"/><path d="M170.079,43.033,92.484,0,85.125,31.039a74.486,74.486,0,0,0,7.536,53.614,102.769,102.769,0,0,1,11.355,68.911l-5.582,29.749,71.645-39.733Z" fill="#1f0300"/><path d="M226.77,156.474V30.614h46.76c17.92,0,27.3,3.921,27.3,22.54v19.32c0,9.52-7.7,18.34-19.32,18.9,11.9.56,20.72,8.4,20.72,18.48v21.28c0,17.22-4.9,25.48-26.88,25.48Zm49.42-92.96c0-7.42-2.38-11.34-10.5-11.34H251.97v30.24h13.3c7.56,0,10.92-3.36,10.92-11.48Zm-24.22,39.34v31.92h12.74c8.26,0,12.88,0,12.88-8.12v-14.7c0-7.42-5.88-9.1-12.04-9.1Z" fill="#1f0300"/><path d="M321.691,156.474V30.614h67.2v21.98h-42v29.26h40.6v21h-40.6v31.641h43.4v21.979Z" fill="#1f0300"/><rect width="26.18" height="125.86" transform="translate(408.069 30.614)" fill="#1f0300"/><path d="M495.987,109.714V89.694h36.4v40.88c0,20.72-16.8,28.7-37.8,28.7s-38.36-7.98-38.36-28.7V56.514c0-20.72,16.66-28.7,37.8-28.7,21,0,37.8,7.98,37.8,28.7v13.86h-25.2V60.014c0-6.72-5.321-10.5-12.6-10.5-7.42,0-12.6,3.78-12.6,10.5v67.06c0,6.72,5.74,10.5,13.16,10.5,7.28,0,13.16-3.779,13.16-10.5v-17.36Z" fill="#1f0300"/><path d="M552.547,156.474V30.614h67.2v21.98h-42v29.26h40.6v21h-40.6v31.641h43.4v21.979Z" fill="#1f0300"/></g></svg>